<mxfile host="app.diagrams.net" agent="Mozilla/5.0 (X11; Linux x86_64) AppleWebKit/537.36 (KHTML, like Gecko) Chrome/123.0.0.0 Safari/537.36" version="24.7.7">
  <diagram id="C5RBs43oDa-KdzZeNtuy" name="Page-1">
    <mxGraphModel dx="3516" dy="1892" grid="1" gridSize="10" guides="1" tooltips="1" connect="1" arrows="1" fold="1" page="1" pageScale="1" pageWidth="827" pageHeight="1169" math="0" shadow="0">
      <root>
        <mxCell id="WIyWlLk6GJQsqaUBKTNV-0" />
        <mxCell id="WIyWlLk6GJQsqaUBKTNV-1" parent="WIyWlLk6GJQsqaUBKTNV-0" />
        <mxCell id="WIyWlLk6GJQsqaUBKTNV-2" value="" style="rounded=0;html=1;jettySize=auto;orthogonalLoop=1;fontSize=11;endArrow=block;endFill=0;endSize=8;strokeWidth=1;shadow=0;labelBackgroundColor=none;edgeStyle=orthogonalEdgeStyle;entryX=0.5;entryY=0;entryDx=0;entryDy=0;" parent="WIyWlLk6GJQsqaUBKTNV-1" source="WIyWlLk6GJQsqaUBKTNV-3" target="KMF2Rv4bHwWJnhtn9kWU-5" edge="1">
          <mxGeometry relative="1" as="geometry" />
        </mxCell>
        <mxCell id="WIyWlLk6GJQsqaUBKTNV-3" value="On new expense submit" style="rounded=1;whiteSpace=wrap;html=1;fontSize=12;glass=0;strokeWidth=1;shadow=0;" parent="WIyWlLk6GJQsqaUBKTNV-1" vertex="1">
          <mxGeometry x="40" y="80" width="120" height="40" as="geometry" />
        </mxCell>
        <mxCell id="KMF2Rv4bHwWJnhtn9kWU-10" value="No" style="edgeStyle=orthogonalEdgeStyle;rounded=0;orthogonalLoop=1;jettySize=auto;html=1;exitX=0.5;exitY=1;exitDx=0;exitDy=0;entryX=0.5;entryY=0;entryDx=0;entryDy=0;" edge="1" parent="WIyWlLk6GJQsqaUBKTNV-1" source="WIyWlLk6GJQsqaUBKTNV-6" target="KMF2Rv4bHwWJnhtn9kWU-9">
          <mxGeometry relative="1" as="geometry" />
        </mxCell>
        <mxCell id="KMF2Rv4bHwWJnhtn9kWU-12" value="Yes" style="edgeStyle=orthogonalEdgeStyle;rounded=0;orthogonalLoop=1;jettySize=auto;html=1;entryX=0;entryY=0.5;entryDx=0;entryDy=0;" edge="1" parent="WIyWlLk6GJQsqaUBKTNV-1" source="WIyWlLk6GJQsqaUBKTNV-6" target="WIyWlLk6GJQsqaUBKTNV-7">
          <mxGeometry relative="1" as="geometry" />
        </mxCell>
        <mxCell id="WIyWlLk6GJQsqaUBKTNV-6" value="&lt;span style=&quot;font-size: 11px;&quot;&gt;Is auto approved&lt;/span&gt;" style="rhombus;whiteSpace=wrap;html=1;shadow=0;fontFamily=Helvetica;fontSize=12;align=center;strokeWidth=1;spacing=6;spacingTop=-4;" parent="WIyWlLk6GJQsqaUBKTNV-1" vertex="1">
          <mxGeometry x="266" y="145" width="140" height="90" as="geometry" />
        </mxCell>
        <mxCell id="WIyWlLk6GJQsqaUBKTNV-7" value="Expense Approved" style="rounded=1;whiteSpace=wrap;html=1;fontSize=12;glass=0;strokeWidth=1;shadow=0;" parent="WIyWlLk6GJQsqaUBKTNV-1" vertex="1">
          <mxGeometry x="633" y="170" width="120" height="40" as="geometry" />
        </mxCell>
        <mxCell id="KMF2Rv4bHwWJnhtn9kWU-19" value="Yes" style="edgeStyle=orthogonalEdgeStyle;rounded=0;orthogonalLoop=1;jettySize=auto;html=1;exitX=0.5;exitY=1;exitDx=0;exitDy=0;entryX=0.5;entryY=0;entryDx=0;entryDy=0;" edge="1" parent="WIyWlLk6GJQsqaUBKTNV-1" source="KMF2Rv4bHwWJnhtn9kWU-0" target="KMF2Rv4bHwWJnhtn9kWU-13">
          <mxGeometry relative="1" as="geometry" />
        </mxCell>
        <mxCell id="KMF2Rv4bHwWJnhtn9kWU-29" style="edgeStyle=orthogonalEdgeStyle;rounded=0;orthogonalLoop=1;jettySize=auto;html=1;entryX=0;entryY=0.5;entryDx=0;entryDy=0;" edge="1" parent="WIyWlLk6GJQsqaUBKTNV-1" source="KMF2Rv4bHwWJnhtn9kWU-0" target="KMF2Rv4bHwWJnhtn9kWU-31">
          <mxGeometry relative="1" as="geometry">
            <mxPoint x="660" y="365" as="targetPoint" />
          </mxGeometry>
        </mxCell>
        <mxCell id="KMF2Rv4bHwWJnhtn9kWU-30" value="Approver&#39;s&lt;div&gt;review&lt;/div&gt;" style="edgeLabel;html=1;align=center;verticalAlign=middle;resizable=0;points=[];" vertex="1" connectable="0" parent="KMF2Rv4bHwWJnhtn9kWU-29">
          <mxGeometry x="-0.1096" y="1" relative="1" as="geometry">
            <mxPoint as="offset" />
          </mxGeometry>
        </mxCell>
        <mxCell id="KMF2Rv4bHwWJnhtn9kWU-0" value="&lt;span style=&quot;font-size: 11px;&quot;&gt;Approver is on leave&lt;/span&gt;" style="rhombus;whiteSpace=wrap;html=1;shadow=0;fontFamily=Helvetica;fontSize=12;align=center;strokeWidth=1;spacing=6;spacingTop=-4;" vertex="1" parent="WIyWlLk6GJQsqaUBKTNV-1">
          <mxGeometry x="266" y="320" width="140" height="90" as="geometry" />
        </mxCell>
        <mxCell id="KMF2Rv4bHwWJnhtn9kWU-7" value="Auto&lt;div&gt;Approval&lt;/div&gt;&lt;div&gt;Status&lt;/div&gt;" style="edgeStyle=orthogonalEdgeStyle;rounded=0;orthogonalLoop=1;jettySize=auto;html=1;entryX=0;entryY=0.5;entryDx=0;entryDy=0;" edge="1" parent="WIyWlLk6GJQsqaUBKTNV-1" source="KMF2Rv4bHwWJnhtn9kWU-5" target="WIyWlLk6GJQsqaUBKTNV-6">
          <mxGeometry relative="1" as="geometry" />
        </mxCell>
        <mxCell id="KMF2Rv4bHwWJnhtn9kWU-5" value="&lt;font style=&quot;font-size: 11px;&quot;&gt;Model 3&lt;/font&gt;&lt;div style=&quot;font-size: 11px;&quot;&gt;Auto Approval&lt;/div&gt;" style="rounded=1;whiteSpace=wrap;html=1;fontSize=12;glass=0;strokeWidth=1;shadow=0;" vertex="1" parent="WIyWlLk6GJQsqaUBKTNV-1">
          <mxGeometry x="40" y="170" width="120" height="40" as="geometry" />
        </mxCell>
        <mxCell id="KMF2Rv4bHwWJnhtn9kWU-11" value="Approver" style="edgeStyle=orthogonalEdgeStyle;rounded=0;orthogonalLoop=1;jettySize=auto;html=1;" edge="1" parent="WIyWlLk6GJQsqaUBKTNV-1" source="KMF2Rv4bHwWJnhtn9kWU-9" target="KMF2Rv4bHwWJnhtn9kWU-0">
          <mxGeometry relative="1" as="geometry" />
        </mxCell>
        <mxCell id="KMF2Rv4bHwWJnhtn9kWU-9" value="&lt;font style=&quot;font-size: 11px;&quot;&gt;Model 2&lt;/font&gt;&lt;div style=&quot;font-size: 11px;&quot;&gt;Predict Approver&lt;/div&gt;" style="rounded=1;whiteSpace=wrap;html=1;fontSize=12;glass=0;strokeWidth=1;shadow=0;" vertex="1" parent="WIyWlLk6GJQsqaUBKTNV-1">
          <mxGeometry x="40" y="345" width="120" height="40" as="geometry" />
        </mxCell>
        <mxCell id="KMF2Rv4bHwWJnhtn9kWU-36" value="Routed Approver&#39;s Review" style="edgeStyle=orthogonalEdgeStyle;rounded=0;orthogonalLoop=1;jettySize=auto;html=1;" edge="1" parent="WIyWlLk6GJQsqaUBKTNV-1" target="KMF2Rv4bHwWJnhtn9kWU-31">
          <mxGeometry relative="1" as="geometry">
            <mxPoint x="160" y="535" as="sourcePoint" />
            <mxPoint x="533" y="387.5" as="targetPoint" />
            <Array as="points">
              <mxPoint x="590" y="535" />
              <mxPoint x="590" y="388" />
            </Array>
          </mxGeometry>
        </mxCell>
        <mxCell id="KMF2Rv4bHwWJnhtn9kWU-13" value="&lt;font style=&quot;font-size: 11px;&quot;&gt;Model 1&lt;/font&gt;&lt;div&gt;&lt;span style=&quot;font-size: 11px;&quot;&gt;Approver Routing&lt;/span&gt;&lt;/div&gt;" style="rounded=1;whiteSpace=wrap;html=1;fontSize=12;glass=0;strokeWidth=1;shadow=0;" vertex="1" parent="WIyWlLk6GJQsqaUBKTNV-1">
          <mxGeometry x="40" y="515" width="120" height="40" as="geometry" />
        </mxCell>
        <mxCell id="KMF2Rv4bHwWJnhtn9kWU-32" style="edgeStyle=orthogonalEdgeStyle;rounded=0;orthogonalLoop=1;jettySize=auto;html=1;entryX=0.5;entryY=1;entryDx=0;entryDy=0;" edge="1" parent="WIyWlLk6GJQsqaUBKTNV-1" source="KMF2Rv4bHwWJnhtn9kWU-31" target="WIyWlLk6GJQsqaUBKTNV-7">
          <mxGeometry relative="1" as="geometry" />
        </mxCell>
        <mxCell id="KMF2Rv4bHwWJnhtn9kWU-35" value="Yes" style="edgeLabel;html=1;align=center;verticalAlign=middle;resizable=0;points=[];" vertex="1" connectable="0" parent="KMF2Rv4bHwWJnhtn9kWU-32">
          <mxGeometry x="-0.5105" y="-1" relative="1" as="geometry">
            <mxPoint x="-18" y="-2" as="offset" />
          </mxGeometry>
        </mxCell>
        <mxCell id="KMF2Rv4bHwWJnhtn9kWU-38" value="No" style="edgeStyle=orthogonalEdgeStyle;rounded=0;orthogonalLoop=1;jettySize=auto;html=1;exitX=0.5;exitY=1;exitDx=0;exitDy=0;" edge="1" parent="WIyWlLk6GJQsqaUBKTNV-1" source="KMF2Rv4bHwWJnhtn9kWU-31" target="KMF2Rv4bHwWJnhtn9kWU-37">
          <mxGeometry relative="1" as="geometry" />
        </mxCell>
        <mxCell id="KMF2Rv4bHwWJnhtn9kWU-31" value="&lt;span style=&quot;font-size: 11px;&quot;&gt;Is approved&lt;/span&gt;" style="rhombus;whiteSpace=wrap;html=1;shadow=0;fontFamily=Helvetica;fontSize=12;align=center;strokeWidth=1;spacing=6;spacingTop=-4;" vertex="1" parent="WIyWlLk6GJQsqaUBKTNV-1">
          <mxGeometry x="623" y="320" width="140" height="90" as="geometry" />
        </mxCell>
        <mxCell id="KMF2Rv4bHwWJnhtn9kWU-37" value="Expense Denied" style="rounded=1;whiteSpace=wrap;html=1;fontSize=12;glass=0;strokeWidth=1;shadow=0;" vertex="1" parent="WIyWlLk6GJQsqaUBKTNV-1">
          <mxGeometry x="633" y="500" width="120" height="40" as="geometry" />
        </mxCell>
      </root>
    </mxGraphModel>
  </diagram>
</mxfile>
